<?xml version="1.0" encoding="UTF-8"?>
<svg xmlns="http://www.w3.org/2000/svg" xmlns:xlink="http://www.w3.org/1999/xlink" width="810pt" height="809.999993pt" viewBox="0 0 810 809.999993" version="1.2">
<g id="surface1">
<path style=" stroke:none;fill-rule:nonzero;fill:rgb(100%,100%,100%);fill-opacity:1;" d="M 400.128906 5 C 179.164062 5 0 184.101562 0 405 C 0 625.898438 179.164062 805 400.128906 805 C 733.796875 805 808.96875 495.234375 777.667969 338.332031 L 400 338.332031 L 400 471.667969 L 657.941406 471.667969 C 628.289062 586.609375 524.199219 671.667969 400 671.667969 C 252.734375 671.667969 133.332031 552.265625 133.332031 405 C 133.332031 257.734375 252.734375 138.332031 400 138.332031 C 466.964844 138.332031 527.972656 163.191406 574.804688 203.957031 L 669.53125 109.296875 C 598.398438 44.496094 503.898438 5 400.128906 5 Z M 400.128906 5 "/>
</g>
</svg>
